PathFileType	4	(X/Y/Z)	23_coords_data.trc
DataRate	CameraRate	NumFrames	NumMarkers	Units	OrigDataRate	OrigDataStartFrame	OrigNumFrames
30.0	30.0	7	21	m	30.0	21	62
Frame#	Time	THUMB_TIP	THUMB_IP	THUMB_MCP	THUMB_CMC	INDEX_TIP	INDEX_DIP	INDEX_PIP	INDEX_MCP	MIDDLE_TIP	MIDDLE_DIP	MIDDLE_PIP	MIDDLE_MCP	RING_TIP	RING_DIP	RING_PIP	RING_MCP	PINKY_TIP	PINKY_DIP	PINKY_PIP	PINKY_MCP	WRIST
X1	Y1	Z1	X2	Y2	Z2	X3	Y3	Z3	X4	Y4	Z4	X5	Y5	Z5	X6	Y6	Z6	X7	Y7	Z7	X8	Y8	Z8	X9	Y9	Z9	X10	Y10	Z10	X11	Y11	Z11	X12	Y12	Z12	X13	Y13	Z13	X14	Y14	Z14	X15	Y15	Z15	X16	Y16	Z16	X17	Y17	Z17	X18	Y18	Z18	X19	Y19	Z19	X20	Y20	Z20	X21	Y21	Z21
19	0.6666666666666637	0.5131427853372942	-0.006206100729989283	-0.16482208489268035	0.5048833835911074	-0.011310882883360351	-0.14399605593942788	0.49032752736366275	-0.019705699352629003	-0.11779540507092368	0.4789144629232518	-0.02596029335237493	-0.07512794658114041	0.5077706440702562	-0.017205881125818556	-0.09907958382925619	0.5239775614108706	-0.01687967593142714	-0.10715605709954223	0.5329447937660108	-0.0003506604274555736	-0.12384108701735752	0.4970190272764985	0.02091296142654553	-0.1154248062597375	0.5075015988950455	-0.015740758019090806	-0.08734139764843574	0.52465792038463	-0.012674636698656871	-0.09226679438315699	0.5408340372716429	0.006163129759621744	-0.10752724481297904	0.5048388784336977	0.030294397177279553	-0.09665625617125073	0.5140762693823613	-0.006302867333651263	-0.07747620968695212	0.5310846407424803	-0.0029074608618043785	-0.08239418880110372	0.5462833074514473	0.014347427256990453	-0.09195710390464884	0.5130915975394226	0.03299193857026517	-0.07834044407173901	0.5265696392135761	-0.008348101464843105	-0.06948927371107572	0.5427232752886273	-0.0055564147538677	-0.0744153803748181	0.5490395258927475	0.014384984619704944	-0.0762202594094441	0.5176919999003355	0.024850214947318316	-0.061773978941965235	0.46228308100186094	-0.023011742144276925	-0.051989820119430985
20	0.6999999999999968	0.5130468275229167	-0.006324129530233202	-0.16489574403338647	0.5048269014830731	-0.011392594579262227	-0.14404524097119953	0.49030316605798013	-0.019751241312062406	-0.11781521744665513	0.478901065781039	-0.025958069692700203	-0.07513785353171909	0.5075589155319733	-0.017135654845056747	-0.099064035426777	0.5237995912088316	-0.016901908284501443	-0.10707564051592933	0.5329165116895598	-0.0004841578041289152	-0.12378937926919176	0.49703757245272817	0.02088287462395433	-0.11543547368814844	0.5073571159249756	-0.015684574898586656	-0.08727359356722753	0.5245245472808409	-0.012695026661144304	-0.09220734487608562	0.5408057962500967	0.0060195976190667855	-0.10750745337412049	0.50487179254166	0.030256762596262976	-0.09666978146774541	0.5139737209217248	-0.006334794636000618	-0.0774122114168766	0.5309859637252343	-0.0029735154089728377	-0.08234023300290794	0.5462667597967301	0.014190419770508278	-0.09193588720551094	0.5131232799595933	0.03295244552720489	-0.07836323205663331	0.5264860359139585	-0.00834262009284048	-0.06943291353938874	0.5426466132814203	-0.00563620456944125	-0.07438377752105751	0.5490413188692405	0.014276282821365283	-0.07623110135733346	0.5177102558688769	0.024822149983805608	-0.06180776512539965	0.4622830810018609	-0.023011742144276925	-0.051989820119430985
21	0.7333333333333302	0.512939793601538	-0.006438363818083492	-0.16496526469437078	0.5047426951969678	-0.011470989928635822	-0.14409710109099694	0.49024778919031237	-0.019799371729795845	-0.11784151584837976	0.47888685631725864	-0.025964855718435986	-0.0751471835378752	0.5073532110543082	-0.01699559296539277	-0.09904058122201931	0.5236156692736026	-0.01686731657176621	-0.10701027367734939	0.532869993640959	-0.0005443482963026769	-0.12374132326134046	0.4970159748096049	0.020886715961892732	-0.1154446424550174	0.5071784901169054	-0.01553894283088364	-0.0872457479235551	0.5243668059341011	-0.01265303954103525	-0.09216848715796278	0.5407631452972119	0.00594266579495395	-0.10749067200695761	0.5048619374592361	0.030245835885133854	-0.09669219432062359	0.5138322779653048	-0.006240638813086785	-0.07738230219322773	0.5308570505685909	-0.002935387938243883	-0.08230494726074467	0.5462190221111201	0.014138075654399396	-0.091932337887348	0.5130998722923277	0.03296257916204237	-0.07838682878022574	0.5263889522845386	-0.008272964597268784	-0.06938131174392514	0.5425531489650868	-0.0056354018302327	-0.07435745566492491	0.5490131459287421	0.014252335537851768	-0.07624381740320885	0.5176867370099107	0.024842221241203388	-0.06184264119985239	0.46228308100186083	-0.023011742144276925	-0.051989820119430985
22	0.7666666666666633	0.5127090811424024	-0.006553426946987351	-0.16507581486714196	0.5045529688224221	-0.011555869884512515	-0.14418434779370093	0.49012232377746334	-0.019856688460322514	-0.11788467299423055	0.47888672324180315	-0.025958652862168585	-0.07514806911603655	0.5072787735187776	-0.01688730487351231	-0.09910353835970176	0.5235612056583878	-0.016792483853660944	-0.1070328140260649	0.5328615364015101	-0.0004919283288361553	-0.123760203859827	0.49698126299585543	0.020893398820983622	-0.11545900773934792	0.507041943531533	-0.015203362975341972	-0.0873132747439983	0.5242795811669176	-0.012555505446011694	-0.09219719727159259	0.5407548248480221	0.00596413610866986	-0.10752686694625746	0.5048393273188791	0.030241796488421735	-0.09671852920544122	0.5137454307975202	-0.00607814346348734	-0.07740282250486263	0.5307769711394243	-0.002830296603583693	-0.08234024332515988	0.546200473524056	0.014181117850384117	-0.09197908824903944	0.5130671629116728	0.03297434913917563	-0.07842478931514663	0.5263414183045151	-0.00806756125963215	-0.06947108565097848	0.5425273875669778	-0.005524578419994541	-0.07442564287760522	0.5490087924130678	0.014357451528331233	-0.07629868728576916	0.5176580736874383	0.024865518598812808	-0.06189048084538473	0.4622830810018609	-0.023011742144276925	-0.051989820119430985
23	0.7999999999999965	0.5124387051182195	-0.006623077414837364	-0.16518612652106923	0.5043212487281311	-0.011614411139974745	-0.14427695414626385	0.48997897913735217	-0.01990750760368476	-0.11792654894958776	0.4789058741492923	-0.025936227888163077	-0.07513717085577909	0.5074131399464927	-0.01689958735012176	-0.09918981047987374	0.5236639495053919	-0.016619232001708895	-0.1071793404760003	0.5328755893860961	-0.00022834258427650855	-0.12386748800092728	0.49689426557271377	0.020948065632237167	-0.11546866869794814	0.5070300968259557	-0.014660658505270985	-0.08739086178371813	0.5243143143091884	-0.012387611012595223	-0.09229892464887679	0.5407577826486643	0.006160393692459132	-0.1076284197622176	0.5047655572083914	0.030286242373551597	-0.0967357132907477	0.5137208978555046	-0.0056365369515465336	-0.07747607025027181	0.5307773131268223	-0.002569976214483627	-0.08244345420344745	0.5461749848230115	0.014452526989886527	-0.09210399611338105	0.512977020133486	0.033049750312238	-0.07843800697349013	0.526390402429439	-0.007787648803153302	-0.06965259589766848	0.5425885342561987	-0.00529140394961114	-0.07459114699632896	0.548962506444314	0.014629907759035499	-0.0764148348402518	0.5175866815594576	0.024941890799217492	-0.061919867797383676	0.46228308100186083	-0.023011742144276925	-0.051989820119430985
24	0.8333333333333297	0.5120468128314506	-0.006642374021216257	-0.1653172907255691	0.5039956175992681	-0.011636554870065319	-0.1443831938264365	0.4897779564244128	-0.019939846278303253	-0.11796854897728348	0.47894068017141633	-0.02592810476826668	-0.07511316187515094	0.5078536641223841	-0.016959720639113773	-0.09944739029162941	0.5240369596094527	-0.016387328797781264	-0.10755746518389742	0.5329057909336634	0.00028380857361332	-0.12415345393680988	0.49673805340656285	0.02103354369261945	-0.11549439228661695	0.5073438117174159	-0.014294007282928622	-0.0876604621603011	0.5246400659079904	-0.012234685387659594	-0.09262017831212876	0.5407834527445529	0.0066253034248406895	-0.10788783803578872	0.5046135132816207	0.030379290217190436	-0.09676886723284572	0.5139139944596225	-0.005219707250638805	-0.07769889436127098	0.5309676324208916	-0.002262186037211622	-0.08274136404963717	0.5461663371058305	0.01495836446530907	-0.09236591574258124	0.5128390070112356	0.03315543666869858	-0.07847791855110164	0.5265797053002123	-0.007515332675626651	-0.0700260999181529	0.5427800951017837	-0.004958844688919162	-0.07492627740993385	0.54889857278777	0.015054056982741648	-0.07661743573679825	0.5174805229398942	0.025049001823336026	-0.061992434116631356	0.46228308100186083	-0.023011742144276925	-0.051989820119430985
25	0.8666666666666629	0.5116118563288183	-0.0066264954894125205	-0.165454150293879	0.503637459747154	-0.01162746534506065	-0.14449229685337328	0.48955565338069235	-0.019964685740493482	-0.11801563759402833	0.47897756136583763	-0.025907183021341096	-0.07508918077084781	0.5088943926226909	-0.01738815460273646	-0.09973623854266611	0.5248858541057058	-0.01615142035722139	-0.10814716287018344	0.5330592592082908	0.0010162087539563602	-0.12459337193884357	0.4966227571723385	0.021103107792042164	-0.11550855491163836	0.5080827785684269	-0.014370718257468718	-0.0879627598737619	0.5253082027269611	-0.012174373592287902	-0.09310676927016825	0.5408792910535478	0.0072723091579161014	-0.10823215483016502	0.5044610484294424	0.030485393554416707	-0.09678609708206987	0.5143653315446375	-0.005048313407000515	-0.0780900151960302	0.5313919963112246	-0.002025542754271803	-0.0831846736249402	0.5461959186844447	0.015595128593891006	-0.09269970397737248	0.5127086669878791	0.03325760572989167	-0.07850950633142262	0.5269440094159742	-0.007472708090958569	-0.07057261972226825	0.5431231645191059	-0.004702007554882814	-0.07542629448353844	0.548829767227191	0.015450444177915412	-0.07688416748531579	0.5173959045210772	0.025127631661897798	-0.0620805270961059	0.46228308100186094	-0.023011742144276925	-0.051989820119430985
